# OBJ file generated from mesh: ActiveQuads
# Vertices: 80
# Faces: 40
v -9.546875 -16.906250 4.597656
v -6.750000 -16.906250 4.597656
v -9.546875 -16.906250 7.398438
v -6.750000 -16.906250 7.398438
v -6.398438 -16.906250 4.597656
v -3.599609 -16.906250 4.597656
v -6.398438 -16.906250 7.398438
v -3.599609 -16.906250 7.398438
v -3.250000 -16.906250 4.597656
v -0.449951 -16.906250 4.597656
v -3.250000 -16.906250 7.398438
v -0.449951 -16.906250 7.398438
v -0.099976 -16.906250 4.597656
v 2.699219 -16.906250 4.597656
v -0.099976 -16.906250 7.398438
v 2.699219 -16.906250 7.398438
v 3.048828 -16.906250 4.597656
v 5.847656 -16.906250 4.597656
v 3.048828 -16.906250 7.398438
v 5.847656 -16.906250 7.398438
v -9.546875 -16.906250 1.449219
v -6.750000 -16.906250 1.449219
v -9.546875 -16.906250 4.250000
v -6.750000 -16.906250 4.250000
v -6.398438 -16.906250 1.449219
v -3.599609 -16.906250 1.449219
v -6.398438 -16.906250 4.250000
v -3.599609 -16.906250 4.250000
v -3.250000 -16.906250 1.449219
v -0.449951 -16.906250 1.449219
v -3.250000 -16.906250 4.250000
v -0.449951 -16.906250 4.250000
v -0.099976 -16.906250 1.449219
v 2.699219 -16.906250 1.449219
v -0.099976 -16.906250 4.250000
v 2.699219 -16.906250 4.250000
v 3.048828 -16.906250 1.449219
v 5.847656 -16.906250 1.449219
v 3.048828 -16.906250 4.250000
v 5.847656 -16.906250 4.250000
v -9.546875 -16.906250 -1.699219
v -6.750000 -16.906250 -1.699219
v -9.546875 -16.906250 1.099609
v -6.750000 -16.906250 1.099609
v -6.398438 -16.906250 -1.699219
v -3.599609 -16.906250 -1.699219
v -6.398438 -16.906250 1.099609
v -3.599609 -16.906250 1.099609
v -3.250000 -16.906250 -1.699219
v -0.449951 -16.906250 -1.699219
v -3.250000 -16.906250 1.099609
v -0.449951 -16.906250 1.099609
v -0.099976 -16.906250 -1.699219
v 2.699219 -16.906250 -1.699219
v -0.099976 -16.906250 1.099609
v 2.699219 -16.906250 1.099609
v 3.048828 -16.906250 -1.699219
v 5.847656 -16.906250 -1.699219
v 3.048828 -16.906250 1.099609
v 5.847656 -16.906250 1.099609
v -9.546875 -16.906250 -4.847656
v -6.750000 -16.906250 -4.847656
v -9.546875 -16.906250 -2.048828
v -6.750000 -16.906250 -2.048828
v -6.398438 -16.906250 -4.847656
v -3.599609 -16.906250 -4.847656
v -6.398438 -16.906250 -2.048828
v -3.599609 -16.906250 -2.048828
v -3.250000 -16.906250 -4.847656
v -0.449951 -16.906250 -4.847656
v -3.250000 -16.906250 -2.048828
v -0.449951 -16.906250 -2.048828
v -0.099976 -16.906250 -4.847656
v 2.699219 -16.906250 -4.847656
v -0.099976 -16.906250 -2.048828
v 2.699219 -16.906250 -2.048828
v 3.048828 -16.906250 -4.847656
v 5.847656 -16.906250 -4.847656
v 3.048828 -16.906250 -2.048828
v 5.847656 -16.906250 -2.048828
vt 0.000000 0.000000
vt 1.000000 0.000000
vt 0.000000 1.000000
vt 1.000000 1.000000
vt 0.000000 0.000000
vt 1.000000 0.000000
vt 0.000000 1.000000
vt 1.000000 1.000000
vt 0.000000 0.000000
vt 1.000000 0.000000
vt 0.000000 1.000000
vt 1.000000 1.000000
vt 0.000000 0.000000
vt 1.000000 0.000000
vt 0.000000 1.000000
vt 1.000000 1.000000
vt 0.000000 0.000000
vt 1.000000 0.000000
vt 0.000000 1.000000
vt 1.000000 1.000000
vt 0.000000 0.000000
vt 1.000000 0.000000
vt 0.000000 1.000000
vt 1.000000 1.000000
vt 0.000000 0.000000
vt 1.000000 0.000000
vt 0.000000 1.000000
vt 1.000000 1.000000
vt 0.000000 0.000000
vt 1.000000 0.000000
vt 0.000000 1.000000
vt 1.000000 1.000000
vt 0.000000 0.000000
vt 1.000000 0.000000
vt 0.000000 1.000000
vt 1.000000 1.000000
vt 0.000000 0.000000
vt 1.000000 0.000000
vt 0.000000 1.000000
vt 1.000000 1.000000
vt 0.000000 0.000000
vt 1.000000 0.000000
vt 0.000000 1.000000
vt 1.000000 1.000000
vt 0.000000 0.000000
vt 1.000000 0.000000
vt 0.000000 1.000000
vt 1.000000 1.000000
vt 0.000000 0.000000
vt 1.000000 0.000000
vt 0.000000 1.000000
vt 1.000000 1.000000
vt 0.000000 0.000000
vt 1.000000 0.000000
vt 0.000000 1.000000
vt 1.000000 1.000000
vt 0.000000 0.000000
vt 1.000000 0.000000
vt 0.000000 1.000000
vt 1.000000 1.000000
vt 0.000000 0.000000
vt 1.000000 0.000000
vt 0.000000 1.000000
vt 1.000000 1.000000
vt 0.000000 0.000000
vt 1.000000 0.000000
vt 0.000000 1.000000
vt 1.000000 1.000000
vt 0.000000 0.000000
vt 1.000000 0.000000
vt 0.000000 1.000000
vt 1.000000 1.000000
vt 0.000000 0.000000
vt 1.000000 0.000000
vt 0.000000 1.000000
vt 1.000000 1.000000
vt 0.000000 0.000000
vt 1.000000 0.000000
vt 0.000000 1.000000
vt 1.000000 1.000000
vn 0.000000 1.000000 0.000000
vn 0.000000 1.000000 0.000000
vn 0.000000 1.000000 0.000000
vn 0.000000 1.000000 0.000000
vn 0.000000 1.000000 0.000000
vn 0.000000 1.000000 0.000000
vn 0.000000 1.000000 0.000000
vn 0.000000 1.000000 0.000000
vn 0.000000 1.000000 0.000000
vn 0.000000 1.000000 0.000000
vn 0.000000 1.000000 0.000000
vn 0.000000 1.000000 0.000000
vn 0.000000 1.000000 0.000000
vn 0.000000 1.000000 0.000000
vn 0.000000 1.000000 0.000000
vn 0.000000 1.000000 0.000000
vn 0.000000 1.000000 0.000000
vn 0.000000 1.000000 0.000000
vn 0.000000 1.000000 0.000000
vn 0.000000 1.000000 0.000000
vn 0.000000 1.000000 0.000000
vn 0.000000 1.000000 0.000000
vn 0.000000 1.000000 0.000000
vn 0.000000 1.000000 0.000000
vn 0.000000 1.000000 0.000000
vn 0.000000 1.000000 0.000000
vn 0.000000 1.000000 0.000000
vn 0.000000 1.000000 0.000000
vn 0.000000 1.000000 0.000000
vn 0.000000 1.000000 0.000000
vn 0.000000 1.000000 0.000000
vn 0.000000 1.000000 0.000000
vn 0.000000 1.000000 0.000000
vn 0.000000 1.000000 0.000000
vn 0.000000 1.000000 0.000000
vn 0.000000 1.000000 0.000000
vn 0.000000 1.000000 0.000000
vn 0.000000 1.000000 0.000000
vn 0.000000 1.000000 0.000000
vn 0.000000 1.000000 0.000000
vn 0.000000 1.000000 0.000000
vn 0.000000 1.000000 0.000000
vn 0.000000 1.000000 0.000000
vn 0.000000 1.000000 0.000000
vn 0.000000 1.000000 0.000000
vn 0.000000 1.000000 0.000000
vn 0.000000 1.000000 0.000000
vn 0.000000 1.000000 0.000000
vn 0.000000 1.000000 0.000000
vn 0.000000 1.000000 0.000000
vn 0.000000 1.000000 0.000000
vn 0.000000 1.000000 0.000000
vn 0.000000 1.000000 0.000000
vn 0.000000 1.000000 0.000000
vn 0.000000 1.000000 0.000000
vn 0.000000 1.000000 0.000000
vn 0.000000 1.000000 0.000000
vn 0.000000 1.000000 0.000000
vn 0.000000 1.000000 0.000000
vn 0.000000 1.000000 0.000000
vn 0.000000 1.000000 0.000000
vn 0.000000 1.000000 0.000000
vn 0.000000 1.000000 0.000000
vn 0.000000 1.000000 0.000000
vn 0.000000 1.000000 0.000000
vn 0.000000 1.000000 0.000000
vn 0.000000 1.000000 0.000000
vn 0.000000 1.000000 0.000000
vn 0.000000 1.000000 0.000000
vn 0.000000 1.000000 0.000000
vn 0.000000 1.000000 0.000000
vn 0.000000 1.000000 0.000000
vn 0.000000 1.000000 0.000000
vn 0.000000 1.000000 0.000000
vn 0.000000 1.000000 0.000000
vn 0.000000 1.000000 0.000000
vn 0.000000 1.000000 0.000000
vn 0.000000 1.000000 0.000000
vn 0.000000 1.000000 0.000000
vn 0.000000 1.000000 0.000000
f 1/1/1 4/4/4 2/2/2
f 4/4/4 1/1/1 3/3/3
f 5/5/5 8/8/8 6/6/6
f 8/8/8 5/5/5 7/7/7
f 9/9/9 12/12/12 10/10/10
f 12/12/12 9/9/9 11/11/11
f 13/13/13 16/16/16 14/14/14
f 16/16/16 13/13/13 15/15/15
f 17/17/17 20/20/20 18/18/18
f 20/20/20 17/17/17 19/19/19
f 21/21/21 24/24/24 22/22/22
f 24/24/24 21/21/21 23/23/23
f 25/25/25 28/28/28 26/26/26
f 28/28/28 25/25/25 27/27/27
f 29/29/29 32/32/32 30/30/30
f 32/32/32 29/29/29 31/31/31
f 33/33/33 36/36/36 34/34/34
f 36/36/36 33/33/33 35/35/35
f 37/37/37 40/40/40 38/38/38
f 40/40/40 37/37/37 39/39/39
f 41/41/41 44/44/44 42/42/42
f 44/44/44 41/41/41 43/43/43
f 45/45/45 48/48/48 46/46/46
f 48/48/48 45/45/45 47/47/47
f 49/49/49 52/52/52 50/50/50
f 52/52/52 49/49/49 51/51/51
f 53/53/53 56/56/56 54/54/54
f 56/56/56 53/53/53 55/55/55
f 57/57/57 60/60/60 58/58/58
f 60/60/60 57/57/57 59/59/59
f 61/61/61 64/64/64 62/62/62
f 64/64/64 61/61/61 63/63/63
f 65/65/65 68/68/68 66/66/66
f 68/68/68 65/65/65 67/67/67
f 69/69/69 72/72/72 70/70/70
f 72/72/72 69/69/69 71/71/71
f 73/73/73 76/76/76 74/74/74
f 76/76/76 73/73/73 75/75/75
f 77/77/77 80/80/80 78/78/78
f 80/80/80 77/77/77 79/79/79