# OBJ file generated from mesh: Bow
# Vertices: 212
# Faces: 112
v -17.828125 -65.125000 130.250000
v -21.875000 -73.437500 130.875000
v -22.281250 -63.968750 128.875000
v -19.640625 -64.937500 131.875000
v -21.875000 -73.437500 130.875000
v -17.828125 -65.125000 130.250000
v -21.468750 -64.562500 133.500000
v -22.281250 -63.968750 128.875000
v -21.875000 -73.437500 130.875000
v -19.640625 -64.937500 131.875000
v -21.468750 -64.562500 133.500000
v -21.875000 -73.437500 130.875000
v -30.171875 68.562500 94.250000
v -34.218750 65.937500 94.062500
v -35.625000 75.250000 91.000000
v -31.984375 68.750000 95.875000
v -30.171875 68.562500 94.250000
v -35.625000 75.250000 91.000000
v -33.593750 68.937500 97.687500
v -35.625000 75.250000 91.000000
v -34.218750 65.937500 94.062500
v -31.984375 68.750000 95.875000
v -35.625000 75.250000 91.000000
v -33.593750 68.937500 97.687500
v -33.000000 -56.468750 112.437500
v -34.812500 -56.062500 114.312500
v -21.468750 -61.531250 129.250000
v -19.843750 -61.718750 127.625000
v -42.718750 -22.671875 95.062500
v -36.843750 -59.312500 112.687500
v -49.187500 -23.687500 93.437500
v -33.000000 -56.468750 112.437500
v -19.843750 -61.718750 127.625000
v -22.281250 -63.968750 128.875000
v -42.718750 -22.671875 95.062500
v -41.281250 -17.625000 96.875000
v -43.125000 -17.421875 98.687500
v -45.125000 -22.281250 97.500000
v -49.187500 -23.687500 93.437500
v -41.281250 -17.625000 96.875000
v -42.718750 -22.671875 95.062500
v -46.968750 -18.625000 94.875000
v -42.500000 -16.406250 96.062500
v -41.281250 -17.625000 96.875000
v -46.343750 -17.015625 95.250000
v -48.375000 -6.292969 91.437500
v -44.312500 -5.484375 92.250000
v -42.500000 -16.406250 96.062500
v -42.500000 -16.406250 96.062500
v -44.312500 -5.484375 92.250000
v -45.937500 -5.281250 93.875000
v -44.125000 -16.203125 97.687500
v -41.281250 -17.625000 96.875000
v -42.500000 -16.406250 96.062500
v -43.125000 -17.421875 98.687500
v -19.437500 -59.093750 131.000000
v -19.640625 -64.937500 131.875000
v -17.828125 -65.125000 130.250000
v -17.625000 -59.312500 129.375000
v -21.468750 -61.531250 129.250000
v -19.437500 -59.093750 131.000000
v -17.625000 -59.312500 129.375000
v -19.843750 -61.718750 127.625000
v -19.843750 -61.718750 127.625000
v -17.625000 -59.312500 129.375000
v -17.828125 -65.125000 130.250000
v -22.281250 -63.968750 128.875000
v -42.718750 -22.671875 95.062500
v -45.125000 -22.281250 97.500000
v -34.812500 -56.062500 114.312500
v -33.000000 -56.468750 112.437500
v -36.625000 -55.875000 115.937500
v -23.281250 -61.312500 130.875000
v -21.468750 -61.531250 129.250000
v -34.812500 -56.062500 114.312500
v -47.562500 -21.875000 99.687500
v -49.187500 -23.687500 93.437500
v -36.843750 -59.312500 112.687500
v -36.625000 -55.875000 115.937500
v -23.281250 -61.312500 130.875000
v -22.281250 -63.968750 128.875000
v -47.562500 -21.875000 99.687500
v -45.125000 -22.281250 97.500000
v -43.125000 -17.421875 98.687500
v -44.937500 -17.015625 100.500000
v -49.187500 -23.687500 93.437500
v -47.562500 -21.875000 99.687500
v -44.937500 -17.015625 100.500000
v -46.968750 -18.625000 94.875000
v -44.937500 -17.015625 100.500000
v -45.531250 -16.000000 99.125000
v -46.343750 -17.015625 95.250000
v -45.531250 -16.000000 99.125000
v -47.375000 -5.078125 95.250000
v -48.375000 -6.292969 91.437500
v -45.531250 -16.000000 99.125000
v -45.937500 -5.281250 93.875000
v -47.375000 -5.078125 95.250000
v -44.125000 -16.203125 97.687500
v -44.937500 -17.015625 100.500000
v -43.125000 -17.421875 98.687500
v -45.531250 -16.000000 99.125000
v -19.437500 -59.093750 131.000000
v -21.062500 -58.687500 132.625000
v -21.468750 -64.562500 133.500000
v -19.640625 -64.937500 131.875000
v -21.468750 -61.531250 129.250000
v -23.281250 -61.312500 130.875000
v -21.062500 -58.687500 132.625000
v -19.437500 -59.093750 131.000000
v -23.281250 -61.312500 130.875000
v -22.281250 -63.968750 128.875000
v -21.468750 -64.562500 133.500000
v -21.062500 -58.687500 132.625000
v -47.562500 -21.875000 99.687500
v -36.625000 -55.875000 115.937500
v -34.812500 -56.062500 114.312500
v -45.125000 -22.281250 97.500000
v -42.718750 49.531250 83.937500
v -31.375000 63.906250 93.875000
v -33.187500 64.312500 95.437500
v -44.531250 49.937500 85.750000
v -45.750000 10.500000 86.187500
v -52.218750 9.484375 84.562500
v -46.968750 51.562500 82.937500
v -42.718750 49.531250 83.937500
v -31.375000 63.906250 93.875000
v -34.218750 65.937500 94.062500
v -45.750000 10.500000 86.187500
v -48.156250 10.906250 88.562500
v -45.531250 7.867188 92.000000
v -43.531250 7.464844 90.187500
v -52.218750 9.484375 84.562500
v -45.750000 10.500000 86.187500
v -43.531250 7.464844 90.187500
v -49.375000 6.453125 88.187500
v -43.531250 7.464844 90.187500
v -44.531250 5.843750 90.187500
v -48.562500 5.238281 89.187500
v -44.531250 5.843750 90.187500
v -44.312500 -5.484375 92.250000
v -48.375000 -6.292969 91.437500
v -44.531250 5.843750 90.187500
v -45.937500 -5.281250 93.875000
v -44.312500 -5.484375 92.250000
v -46.156250 6.046875 91.625000
v -43.531250 7.464844 90.187500
v -45.531250 7.867188 92.000000
v -44.531250 5.843750 90.187500
v -30.781250 63.500000 98.312500
v -28.953125 63.093750 96.500000
v -30.171875 68.562500 94.250000
v -31.984375 68.750000 95.875000
v -33.187500 64.312500 95.437500
v -31.375000 63.906250 93.875000
v -28.953125 63.093750 96.500000
v -30.781250 63.500000 98.312500
v -31.375000 63.906250 93.875000
v -34.218750 65.937500 94.062500
v -30.171875 68.562500 94.250000
v -28.953125 63.093750 96.500000
v -45.750000 10.500000 86.187500
v -42.718750 49.531250 83.937500
v -44.531250 49.937500 85.750000
v -48.156250 10.906250 88.562500
v -46.562500 50.156250 87.562500
v -44.531250 49.937500 85.750000
v -33.187500 64.312500 95.437500
v -34.812500 64.500000 97.062500
v -50.812500 11.304688 90.812500
v -46.968750 51.562500 82.937500
v -52.218750 9.484375 84.562500
v -46.562500 50.156250 87.562500
v -34.812500 64.500000 97.062500
v -34.218750 65.937500 94.062500
v -50.812500 11.304688 90.812500
v -47.375000 8.070313 93.875000
v -45.531250 7.867188 92.000000
v -48.156250 10.906250 88.562500
v -52.218750 9.484375 84.562500
v -47.375000 8.070313 93.875000
v -50.812500 11.304688 90.812500
v -49.375000 6.453125 88.187500
v -47.562500 6.453125 93.062500
v -47.375000 8.070313 93.875000
v -48.562500 5.238281 89.187500
v -48.375000 -6.292969 91.437500
v -47.375000 -5.078125 95.250000
v -47.562500 6.453125 93.062500
v -47.562500 6.453125 93.062500
v -47.375000 -5.078125 95.250000
v -45.937500 -5.281250 93.875000
v -46.156250 6.046875 91.625000
v -47.375000 8.070313 93.875000
v -47.562500 6.453125 93.062500
v -45.531250 7.867188 92.000000
v -30.781250 63.500000 98.312500
v -31.984375 68.750000 95.875000
v -33.593750 68.937500 97.687500
v -32.375000 63.718750 99.937500
v -33.187500 64.312500 95.437500
v -30.781250 63.500000 98.312500
v -32.375000 63.718750 99.937500
v -34.812500 64.500000 97.062500
v -34.812500 64.500000 97.062500
v -32.375000 63.718750 99.937500
v -33.593750 68.937500 97.687500
v -34.218750 65.937500 94.062500
v -50.812500 11.304688 90.812500
v -48.156250 10.906250 88.562500
v -44.531250 49.937500 85.750000
v -46.562500 50.156250 87.562500
vt 0.081299 0.204712
vt 0.018066 0.189697
vt 0.075256 0.234863
vt 0.084290 0.186646
vt 0.018066 0.189697
vt 0.081299 0.204712
vt 0.081299 0.204712
vt 0.075256 0.234863
vt 0.018066 0.189697
vt 0.084290 0.186646
vt 0.081299 0.204712
vt 0.018066 0.189697
vt 0.081299 0.204712
vt 0.075256 0.234863
vt 0.018066 0.189697
vt 0.084290 0.186646
vt 0.081299 0.204712
vt 0.018066 0.189697
vt 0.081299 0.204712
vt 0.018066 0.189697
vt 0.075256 0.234863
vt 0.084290 0.186646
vt 0.018066 0.189697
vt 0.081299 0.204712
vt 0.087280 0.385254
vt 0.105347 0.382324
vt 0.117432 0.237793
vt 0.099365 0.234863
vt 0.201660 0.641113
vt 0.054199 0.388428
vt 0.159546 0.668457
vt 0.087280 0.385254
vt 0.099365 0.234863
vt 0.075256 0.234863
vt 0.201660 0.641113
vt 0.231812 0.665039
vt 0.246826 0.659180
vt 0.222778 0.628906
vt 0.159546 0.668457
vt 0.231812 0.665039
vt 0.201660 0.641113
vt 0.195679 0.686523
vt 0.234863 0.677246
vt 0.231812 0.665039
vt 0.207764 0.692383
vt 0.237793 0.767578
vt 0.264893 0.755371
vt 0.234863 0.677246
vt 0.234863 0.677246
vt 0.264893 0.755371
vt 0.280029 0.749512
vt 0.249878 0.671387
vt 0.231812 0.665039
vt 0.234863 0.677246
vt 0.246826 0.659180
vt 0.126465 0.210693
vt 0.084290 0.186646
vt 0.081299 0.204712
vt 0.114380 0.216797
vt 0.117432 0.237793
vt 0.126465 0.210693
vt 0.114380 0.216797
vt 0.099365 0.234863
vt 0.099365 0.234863
vt 0.114380 0.216797
vt 0.081299 0.204712
vt 0.075256 0.234863
vt 0.201660 0.641113
vt 0.222778 0.628906
vt 0.105347 0.382324
vt 0.087280 0.385254
vt 0.087280 0.385254
vt 0.099365 0.234863
vt 0.117432 0.237793
vt 0.105347 0.382324
vt 0.201660 0.641113
vt 0.159546 0.668457
vt 0.054199 0.388428
vt 0.087280 0.385254
vt 0.099365 0.234863
vt 0.075256 0.234863
vt 0.201660 0.641113
vt 0.222778 0.628906
vt 0.246826 0.659180
vt 0.231812 0.665039
vt 0.159546 0.668457
vt 0.201660 0.641113
vt 0.231812 0.665039
vt 0.195679 0.686523
vt 0.231812 0.665039
vt 0.234863 0.677246
vt 0.207764 0.692383
vt 0.234863 0.677246
vt 0.264893 0.755371
vt 0.237793 0.767578
vt 0.234863 0.677246
vt 0.280029 0.749512
vt 0.264893 0.755371
vt 0.249878 0.671387
vt 0.231812 0.665039
vt 0.246826 0.659180
vt 0.234863 0.677246
vt 0.126465 0.210693
vt 0.114380 0.216797
vt 0.081299 0.204712
vt 0.084290 0.186646
vt 0.117432 0.237793
vt 0.099365 0.234863
vt 0.114380 0.216797
vt 0.126465 0.210693
vt 0.099365 0.234863
vt 0.075256 0.234863
vt 0.081299 0.204712
vt 0.114380 0.216797
vt 0.201660 0.641113
vt 0.087280 0.385254
vt 0.105347 0.382324
vt 0.222778 0.628906
vt 0.087280 0.385254
vt 0.099365 0.234863
vt 0.117432 0.237793
vt 0.105347 0.382324
vt 0.201660 0.641113
vt 0.159546 0.668457
vt 0.054199 0.388428
vt 0.087280 0.385254
vt 0.099365 0.234863
vt 0.075256 0.234863
vt 0.201660 0.641113
vt 0.222778 0.628906
vt 0.246826 0.659180
vt 0.231812 0.665039
vt 0.159546 0.668457
vt 0.201660 0.641113
vt 0.231812 0.665039
vt 0.195679 0.686523
vt 0.231812 0.665039
vt 0.234863 0.677246
vt 0.207764 0.692383
vt 0.234863 0.677246
vt 0.264893 0.755371
vt 0.237793 0.767578
vt 0.234863 0.677246
vt 0.280029 0.749512
vt 0.264893 0.755371
vt 0.249878 0.671387
vt 0.231812 0.665039
vt 0.246826 0.659180
vt 0.234863 0.677246
vt 0.126465 0.210693
vt 0.114380 0.216797
vt 0.081299 0.204712
vt 0.084290 0.186646
vt 0.117432 0.237793
vt 0.099365 0.234863
vt 0.114380 0.216797
vt 0.126465 0.210693
vt 0.099365 0.234863
vt 0.075256 0.234863
vt 0.081299 0.204712
vt 0.114380 0.216797
vt 0.201660 0.641113
vt 0.087280 0.385254
vt 0.105347 0.382324
vt 0.222778 0.628906
vt 0.087280 0.385254
vt 0.105347 0.382324
vt 0.117432 0.237793
vt 0.099365 0.234863
vt 0.201660 0.641113
vt 0.054199 0.388428
vt 0.159546 0.668457
vt 0.087280 0.385254
vt 0.099365 0.234863
vt 0.075256 0.234863
vt 0.201660 0.641113
vt 0.231812 0.665039
vt 0.246826 0.659180
vt 0.222778 0.628906
vt 0.159546 0.668457
vt 0.231812 0.665039
vt 0.201660 0.641113
vt 0.195679 0.686523
vt 0.234863 0.677246
vt 0.231812 0.665039
vt 0.207764 0.692383
vt 0.237793 0.767578
vt 0.264893 0.755371
vt 0.234863 0.677246
vt 0.234863 0.677246
vt 0.264893 0.755371
vt 0.280029 0.749512
vt 0.249878 0.671387
vt 0.231812 0.665039
vt 0.234863 0.677246
vt 0.246826 0.659180
vt 0.126465 0.210693
vt 0.084290 0.186646
vt 0.081299 0.204712
vt 0.114380 0.216797
vt 0.117432 0.237793
vt 0.126465 0.210693
vt 0.114380 0.216797
vt 0.099365 0.234863
vt 0.099365 0.234863
vt 0.114380 0.216797
vt 0.081299 0.204712
vt 0.075256 0.234863
vt 0.201660 0.641113
vt 0.222778 0.628906
vt 0.105347 0.382324
vt 0.087280 0.385254
vn 0.309570 -0.276855 -0.909180
vn 0.216919 -0.184326 -0.958496
vn -0.492920 0.618164 -0.611816
vn 0.679688 -0.060822 0.730469
vn 0.648926 -0.245972 0.719727
vn 0.679688 -0.060822 0.730469
vn -0.956055 -0.060822 0.286377
vn -0.492920 0.618164 -0.611816
vn 0.216919 -0.184326 -0.958496
vn 0.679688 -0.060822 0.730469
vn 0.679688 -0.060822 0.730469
vn 0.648926 -0.245972 0.719727
vn 0.309570 -0.153442 -0.937988
vn -0.338623 -0.924805 -0.170898
vn -0.986816 0.093445 0.130859
vn 0.618164 0.525391 0.583984
vn 0.618164 0.525391 0.583984
vn 0.556152 0.679688 0.477051
vn -0.956055 0.031738 0.291260
vn -0.986816 0.093445 0.130859
vn -0.338623 -0.924805 -0.170898
vn 0.618164 0.525391 0.583984
vn 0.556152 0.679688 0.477051
vn 0.618164 0.525391 0.583984
vn 0.247803 0.957520 0.144897
vn 0.247803 0.957520 0.144897
vn 0.247803 0.957520 0.144897
vn 0.247803 0.957520 0.144897
vn 0.278564 -0.369385 -0.886230
vn 0.309570 -0.492920 -0.812988
vn 0.278564 -0.369385 -0.886230
vn 0.309570 -0.492920 -0.812988
vn 0.402100 -0.708984 -0.578613
vn 0.402100 -0.708984 -0.578613
vn 0.587402 -0.431152 0.684570
vn 0.587402 -0.431152 0.684570
vn 0.587402 -0.431152 0.684570
vn 0.587402 -0.431152 0.684570
vn 0.247803 0.216919 -0.943848
vn 0.278564 0.155151 -0.947266
vn 0.247803 0.216919 -0.943848
vn 0.278564 0.155151 -0.947266
vn 0.278564 -0.245972 -0.928223
vn 0.278564 0.155151 -0.947266
vn 0.278564 -0.245972 -0.928223
vn 0.247803 -0.215088 -0.944336
vn 0.247803 -0.215088 -0.944336
vn 0.278564 -0.245972 -0.928223
vn 0.648926 0.402100 0.645508
vn 0.679688 0.247803 0.689941
vn 0.679688 0.247803 0.689941
vn 0.525391 0.710449 0.467041
vn 0.494629 0.772461 0.397461
vn 0.648926 0.402100 0.645508
vn 0.494629 0.772461 0.397461
vn 0.679688 0.062622 0.730469
vn 0.679688 -0.060822 0.730469
vn 0.679688 -0.060822 0.730469
vn 0.679688 0.062622 0.730469
vn -0.400391 0.741699 -0.537598
vn -0.400391 0.741699 -0.537598
vn -0.400391 0.741699 -0.537598
vn -0.400391 0.741699 -0.537598
vn 0.463867 -0.369385 -0.804688
vn 0.463867 -0.369385 -0.804688
vn 0.309570 -0.276855 -0.909180
vn -0.492920 0.618164 -0.611816
vn 0.648926 0.494629 0.577637
vn 0.648926 0.494629 0.577637
vn 0.648926 0.494629 0.577637
vn 0.648926 0.494629 0.577637
vn 0.247803 0.957520 0.144897
vn 0.247803 0.957520 0.144897
vn 0.247803 0.957520 0.144897
vn 0.247803 0.957520 0.144897
vn -0.956055 -0.184326 0.227661
vn -0.956055 -0.184326 0.227661
vn -0.894043 -0.276855 0.351074
vn -0.894043 -0.276855 0.351074
vn -0.708984 -0.523438 0.471680
vn -0.708984 -0.523438 0.471680
vn 0.587402 -0.431152 0.684570
vn 0.587402 -0.431152 0.684570
vn 0.587402 -0.431152 0.684570
vn 0.587402 -0.431152 0.684570
vn -0.894043 0.402100 0.195679
vn -0.894043 0.402100 0.195679
vn -0.924805 0.340332 0.167358
vn -0.924805 0.340332 0.167358
vn -0.924805 0.340332 0.167358
vn -0.956055 -0.060822 0.286377
vn -0.956055 -0.060822 0.286377
vn -0.956055 -0.060822 0.286377
vn -0.986816 -0.029968 0.157959
vn -0.986816 -0.029968 0.157959
vn 0.648926 0.402100 0.645508
vn 0.679688 0.247803 0.689941
vn 0.679688 0.247803 0.689941
vn 0.525391 0.710449 0.467041
vn 0.494629 0.772461 0.397461
vn 0.494629 0.772461 0.397461
vn 0.648926 0.402100 0.645508
vn 0.679688 0.062622 0.730469
vn 0.679688 0.062622 0.730469
vn 0.679688 -0.060822 0.730469
vn 0.679688 -0.060822 0.730469
vn -0.400391 0.741699 -0.537598
vn -0.400391 0.741699 -0.537598
vn -0.400391 0.741699 -0.537598
vn -0.400391 0.741699 -0.537598
vn -0.894043 -0.153442 0.420166
vn -0.492920 0.618164 -0.611816
vn -0.956055 -0.060822 0.286377
vn -0.894043 -0.153442 0.420166
vn 0.648926 0.494629 0.577637
vn 0.648926 0.494629 0.577637
vn 0.648926 0.494629 0.577637
vn 0.648926 0.494629 0.577637
vn 0.402100 -0.708984 0.578613
vn 0.402100 -0.708984 0.578613
vn 0.402100 -0.708984 0.578613
vn 0.402100 -0.708984 0.578613
vn 0.247803 -0.060822 -0.966797
vn 0.247803 -0.060822 -0.966797
vn 0.278564 0.062622 -0.958008
vn 0.278564 0.062622 -0.958008
vn 0.309570 0.371338 -0.875000
vn 0.309570 0.371338 -0.875000
vn 0.463867 0.803223 0.372803
vn 0.463867 0.803223 0.372803
vn 0.463867 0.803223 0.372803
vn 0.463867 0.803223 0.372803
vn 0.340332 -0.616211 -0.709473
vn 0.340332 -0.616211 -0.709473
vn 0.340332 -0.554688 -0.758789
vn 0.340332 -0.554688 -0.758789
vn 0.340332 -0.554688 -0.758789
vn 0.278564 -0.184326 -0.942383
vn 0.278564 -0.184326 -0.942383
vn 0.278564 -0.184326 -0.942383
vn 0.247803 -0.215088 -0.944336
vn 0.247803 -0.215088 -0.944336
vn 0.679688 0.062622 0.730469
vn 0.679688 0.247803 0.689941
vn 0.679688 0.247803 0.689941
vn 0.803223 -0.122559 0.582031
vn 0.618164 -0.369385 0.693359
vn 0.618164 -0.369385 0.693359
vn 0.679688 0.062622 0.730469
vn 0.648926 0.432861 0.625000
vn 0.648926 0.432861 0.625000
vn 0.618164 0.525391 0.583984
vn 0.618164 0.525391 0.583984
vn -0.245972 -0.956055 -0.159058
vn -0.245972 -0.956055 -0.159058
vn -0.245972 -0.956055 -0.159058
vn -0.245972 -0.956055 -0.159058
vn 0.432861 0.000892 -0.900879
vn -0.338623 -0.924805 -0.170898
vn 0.309570 -0.153442 -0.937988
vn 0.432861 0.000892 -0.900879
vn 0.679688 0.000892 0.732910
vn 0.679688 0.000892 0.732910
vn 0.679688 0.000892 0.732910
vn 0.679688 0.000892 0.732910
vn 0.402100 -0.708984 0.578613
vn 0.402100 -0.708984 0.578613
vn 0.402100 -0.708984 0.578613
vn 0.402100 -0.708984 0.578613
vn -0.986816 0.124329 0.101929
vn -0.956055 0.247803 0.156250
vn -0.986816 0.124329 0.101929
vn -0.956055 0.247803 0.156250
vn -0.801270 0.556152 0.217651
vn -0.801270 0.556152 0.217651
vn 0.463867 0.803223 0.372803
vn 0.463867 0.803223 0.372803
vn 0.463867 0.803223 0.372803
vn 0.463867 0.803223 0.372803
vn -0.832520 -0.431152 0.347412
vn -0.863281 -0.369385 0.343018
vn -0.832520 -0.431152 0.347412
vn -0.863281 -0.369385 0.343018
vn -0.986816 0.000892 0.160767
vn -0.863281 -0.369385 0.343018
vn -0.986816 0.000892 0.160767
vn -0.986816 -0.029968 0.157959
vn -0.986816 -0.029968 0.157959
vn -0.986816 0.000892 0.160767
vn 0.679688 0.062622 0.730469
vn 0.679688 0.247803 0.689941
vn 0.679688 0.247803 0.689941
vn 0.803223 -0.122559 0.582031
vn 0.618164 -0.369385 0.693359
vn 0.679688 0.062622 0.730469
vn 0.618164 -0.369385 0.693359
vn 0.648926 0.432861 0.625000
vn 0.618164 0.525391 0.583984
vn 0.618164 0.525391 0.583984
vn 0.648926 0.432861 0.625000
vn -0.245972 -0.956055 -0.159058
vn -0.245972 -0.956055 -0.159058
vn -0.245972 -0.956055 -0.159058
vn -0.245972 -0.956055 -0.159058
vn -0.924805 0.186035 0.330566
vn -0.924805 0.186035 0.330566
vn -0.956055 0.031738 0.291260
vn -0.338623 -0.924805 -0.170898
vn 0.679688 0.000892 0.732910
vn 0.679688 0.000892 0.732910
vn 0.679688 0.000892 0.732910
vn 0.679688 0.000892 0.732910
f 1/1/1 2/2/2 3/3/3
f 4/4/4 5/5/5 6/6/6
f 7/7/7 8/8/8 9/9/9
f 10/10/10 11/11/11 12/12/12
f 13/13/13 14/14/14 15/15/15
f 16/16/16 17/17/17 18/18/18
f 19/19/19 20/20/20 21/21/21
f 22/22/22 23/23/23 24/24/24
f 25/25/25 26/26/26 27/27/27
f 25/25/25 27/27/27 28/28/28
f 29/29/29 30/30/30 31/31/31
f 29/29/29 32/32/32 30/30/30
f 30/30/30 32/32/32 33/33/33
f 30/30/30 33/33/33 34/34/34
f 35/35/35 36/36/36 37/37/37
f 35/35/35 37/37/37 38/38/38
f 39/39/39 40/40/40 41/41/41
f 39/39/39 42/42/42 40/40/40
f 42/42/42 43/43/43 44/44/44
f 42/42/42 45/45/45 43/43/43
f 45/45/45 46/46/46 47/47/47
f 45/45/45 47/47/47 48/48/48
f 49/49/49 50/50/50 51/51/51
f 49/49/49 51/51/51 52/52/52
f 53/53/53 54/54/54 52/52/52
f 53/53/53 52/52/52 55/55/55
f 56/56/56 57/57/57 58/58/58
f 56/56/56 58/58/58 59/59/59
f 60/60/60 61/61/61 62/62/62
f 60/60/60 62/62/62 63/63/63
f 64/64/64 65/65/65 66/66/66
f 64/64/64 66/66/66 67/67/67
f 68/68/68 69/69/69 70/70/70
f 68/68/68 70/70/70 71/71/71
f 72/72/72 73/73/73 74/74/74
f 72/72/72 74/74/74 75/75/75
f 76/76/76 77/77/77 78/78/78
f 76/76/76 78/78/78 79/79/79
f 78/78/78 80/80/80 79/79/79
f 78/78/78 81/81/81 80/80/80
f 82/82/82 83/83/83 84/84/84
f 82/82/82 84/84/84 85/85/85
f 86/86/86 87/87/87 88/88/88
f 86/86/86 88/88/88 89/89/89
f 89/89/89 90/90/90 91/91/91
f 89/89/89 91/91/91 92/92/92
f 92/92/92 93/93/93 94/94/94
f 92/92/92 94/94/94 95/95/95
f 96/96/96 97/97/97 98/98/98
f 96/96/96 99/99/99 97/97/97
f 100/100/100 101/101/101 99/99/99
f 100/100/100 99/99/99 102/102/102
f 103/103/103 104/104/104 105/105/105
f 103/103/103 105/105/105 106/106/106
f 107/107/107 108/108/108 109/109/109
f 107/107/107 109/109/109 110/110/110
f 111/111/111 112/112/112 113/113/113
f 111/111/111 113/113/113 114/114/114
f 115/115/115 116/116/116 117/117/117
f 115/115/115 117/117/117 118/118/118
f 119/119/119 120/120/120 121/121/121
f 119/119/119 121/121/121 122/122/122
f 123/123/123 124/124/124 125/125/125
f 123/123/123 125/125/125 126/126/126
f 125/125/125 127/127/127 126/126/126
f 125/125/125 128/128/128 127/127/127
f 129/129/129 130/130/130 131/131/131
f 129/129/129 131/131/131 132/132/132
f 133/133/133 134/134/134 135/135/135
f 133/133/133 135/135/135 136/136/136
f 136/136/136 137/137/137 138/138/138
f 136/136/136 138/138/138 139/139/139
f 139/139/139 140/140/140 141/141/141
f 139/139/139 141/141/141 142/142/142
f 143/143/143 144/144/144 145/145/145
f 143/143/143 146/146/146 144/144/144
f 147/147/147 148/148/148 146/146/146
f 147/147/147 146/146/146 149/149/149
f 150/150/150 151/151/151 152/152/152
f 150/150/150 152/152/152 153/153/153
f 154/154/154 155/155/155 156/156/156
f 154/154/154 156/156/156 157/157/157
f 158/158/158 159/159/159 160/160/160
f 158/158/158 160/160/160 161/161/161
f 162/162/162 163/163/163 164/164/164
f 162/162/162 164/164/164 165/165/165
f 166/166/166 167/167/167 168/168/168
f 166/166/166 168/168/168 169/169/169
f 170/170/170 171/171/171 172/172/172
f 170/170/170 173/173/173 171/171/171
f 171/171/171 173/173/173 174/174/174
f 171/171/171 174/174/174 175/175/175
f 176/176/176 177/177/177 178/178/178
f 176/176/176 178/178/178 179/179/179
f 180/180/180 181/181/181 182/182/182
f 180/180/180 183/183/183 181/181/181
f 183/183/183 184/184/184 185/185/185
f 183/183/183 186/186/186 184/184/184
f 186/186/186 187/187/187 188/188/188
f 186/186/186 188/188/188 189/189/189
f 190/190/190 191/191/191 192/192/192
f 190/190/190 192/192/192 193/193/193
f 194/194/194 195/195/195 193/193/193
f 194/194/194 193/193/193 196/196/196
f 197/197/197 198/198/198 199/199/199
f 197/197/197 199/199/199 200/200/200
f 201/201/201 202/202/202 203/203/203
f 201/201/201 203/203/203 204/204/204
f 205/205/205 206/206/206 207/207/207
f 205/205/205 207/207/207 208/208/208
f 209/209/209 210/210/210 211/211/211
f 209/209/209 211/211/211 212/212/212