# OBJ file generated from mesh: vfx_ring_med
# Vertices: 42
# Faces: 40
v 0.474609 0.154175 0.000000
v 0.499268 -0.000000 0.000000
v 0.287598 -0.000000 -0.000000
v 0.273438 0.088867 -0.000000
v 0.403809 0.293457 0.000000
v 0.232666 0.169067 -0.000000
v 0.293457 0.403809 0.000000
v 0.169067 0.232666 -0.000000
v 0.154175 0.474609 0.000000
v 0.088867 0.273438 -0.000000
v 0.000000 0.499268 0.000000
v 0.000000 0.287598 -0.000000
v -0.154175 0.474609 0.000000
v -0.088867 0.273438 -0.000000
v -0.293457 0.403809 0.000000
v -0.169067 0.232666 -0.000000
v -0.403809 0.293457 0.000000
v -0.232666 0.169067 -0.000000
v -0.474609 0.154175 0.000000
v -0.273438 0.088867 -0.000000
v -0.499268 -0.000000 0.000000
v -0.287598 -0.000000 -0.000000
v -0.474609 -0.154175 0.000000
v -0.273438 -0.088867 -0.000000
v -0.403809 -0.293457 0.000000
v -0.232666 -0.169067 -0.000000
v -0.293457 -0.403809 0.000000
v -0.169067 -0.232666 0.000000
v -0.154175 -0.474609 0.000000
v -0.088867 -0.273438 0.000000
v 0.000000 -0.499268 0.000000
v 0.000000 -0.287598 0.000000
v 0.154175 -0.474609 0.000000
v 0.088867 -0.273438 0.000000
v 0.293457 -0.403809 0.000000
v 0.169067 -0.232666 0.000000
v 0.403809 -0.293457 0.000000
v 0.232666 -0.169067 -0.000000
v 0.474609 -0.154175 0.000000
v 0.273438 -0.088867 -0.000000
v 0.499268 -0.000000 0.000000
v 0.287598 -0.000000 -0.000000
vt 0.948242 1.000000
vt 1.000000 1.000000
vt 1.000000 0.000000
vt 0.948242 0.000000
vt 0.898438 1.000000
vt 0.898438 0.000000
vt 0.848145 1.000000
vt 0.848145 0.000000
vt 0.798340 1.000000
vt 0.798340 0.000000
vt 0.748535 1.000000
vt 0.748535 0.000000
vt 0.698242 1.000000
vt 0.698242 0.000000
vt 0.648438 1.000000
vt 0.648438 0.000000
vt 0.598145 1.000000
vt 0.598145 0.000000
vt 0.548340 1.000000
vt 0.548340 0.000000
vt 0.498535 1.000000
vt 0.498535 0.000000
vt 0.448486 1.000000
vt 0.448486 0.000000
vt 0.398438 1.000000
vt 0.398438 -0.000000
vt 0.348389 1.000000
vt 0.348389 -0.000000
vt 0.298584 0.999512
vt 0.298584 -0.000000
vt 0.248535 1.000000
vt 0.248535 0.000000
vt 0.198608 1.000000
vt 0.198608 0.000000
vt 0.148560 1.000000
vt 0.148560 0.000000
vt 0.098572 1.000000
vt 0.098572 0.000000
vt 0.048615 1.000000
vt 0.048615 0.000000
vt 0.000000 1.000000
vt 0.000000 0.000000
vn 0.000000 0.000000 -1.000000
vn 0.000000 0.000000 -1.000000
vn 0.000000 0.000000 -1.000000
vn 0.000000 0.000000 -1.000000
vn 0.000000 0.000000 -1.000000
vn 0.000000 0.000000 -1.000000
vn 0.000000 0.000000 -1.000000
vn 0.000000 0.000000 -1.000000
vn 0.000000 0.000000 -1.000000
vn 0.000000 0.000000 -1.000000
vn 0.000000 0.000000 -1.000000
vn 0.000000 0.000000 -1.000000
vn 0.000000 0.000000 -1.000000
vn 0.000000 0.000000 -1.000000
vn 0.000000 0.000000 -1.000000
vn 0.000000 0.000000 -1.000000
vn 0.000000 0.000000 -1.000000
vn 0.000000 0.000000 -1.000000
vn 0.000000 0.000000 -1.000000
vn 0.000000 0.000000 -1.000000
vn 0.000000 0.000000 -1.000000
vn 0.000000 0.000000 -1.000000
vn 0.000000 0.000000 -1.000000
vn 0.000000 0.000000 -1.000000
vn 0.000000 0.000000 -1.000000
vn 0.000000 0.000000 -1.000000
vn 0.000000 0.000000 -1.000000
vn 0.000000 0.000000 -1.000000
vn 0.000000 0.000000 -1.000000
vn 0.000000 0.000000 -1.000000
vn 0.000000 0.000000 -1.000000
vn 0.000000 0.000000 -1.000000
vn 0.000000 0.000000 -1.000000
vn 0.000000 0.000000 -1.000000
vn 0.000000 0.000000 -1.000000
vn 0.000000 0.000000 -1.000000
vn 0.000000 0.000000 -1.000000
vn 0.000000 0.000000 -1.000000
vn 0.000000 0.000000 -1.000000
vn 0.000000 0.000000 -1.000000
vn 0.000000 0.000000 -1.000000
vn 0.000000 0.000000 -1.000000
f 1/1/1 2/2/2 3/3/3
f 1/1/1 3/3/3 4/4/4
f 5/5/5 1/1/1 4/4/4
f 5/5/5 4/4/4 6/6/6
f 7/7/7 5/5/5 6/6/6
f 7/7/7 6/6/6 8/8/8
f 9/9/9 7/7/7 8/8/8
f 9/9/9 8/8/8 10/10/10
f 11/11/11 9/9/9 10/10/10
f 11/11/11 10/10/10 12/12/12
f 13/13/13 11/11/11 12/12/12
f 13/13/13 12/12/12 14/14/14
f 15/15/15 13/13/13 14/14/14
f 15/15/15 14/14/14 16/16/16
f 17/17/17 15/15/15 16/16/16
f 17/17/17 16/16/16 18/18/18
f 19/19/19 17/17/17 18/18/18
f 19/19/19 18/18/18 20/20/20
f 21/21/21 19/19/19 20/20/20
f 21/21/21 20/20/20 22/22/22
f 23/23/23 21/21/21 22/22/22
f 23/23/23 22/22/22 24/24/24
f 25/25/25 23/23/23 24/24/24
f 25/25/25 24/24/24 26/26/26
f 27/27/27 25/25/25 26/26/26
f 27/27/27 26/26/26 28/28/28
f 29/29/29 27/27/27 28/28/28
f 29/29/29 28/28/28 30/30/30
f 31/31/31 29/29/29 30/30/30
f 31/31/31 30/30/30 32/32/32
f 33/33/33 31/31/31 32/32/32
f 33/33/33 32/32/32 34/34/34
f 35/35/35 33/33/33 34/34/34
f 35/35/35 34/34/34 36/36/36
f 37/37/37 35/35/35 36/36/36
f 37/37/37 36/36/36 38/38/38
f 39/39/39 37/37/37 38/38/38
f 39/39/39 38/38/38 40/40/40
f 41/41/41 39/39/39 40/40/40
f 41/41/41 40/40/40 42/42/42