# OBJ file generated from mesh: vfx_particle_round
# Vertices: 13
# Faces: 12
v 0.000000 0.500488 0.000000
v 0.250244 0.433350 0.000000
v -0.000000 0.000000 0.000000
v -0.250244 0.433350 0.000000
v 0.433350 0.250244 0.000000
v -0.433350 0.250244 0.000000
v 0.500488 0.000000 0.000000
v -0.500488 0.000000 0.000000
v 0.433350 -0.250244 0.000000
v -0.433350 -0.250244 0.000000
v 0.250244 -0.433350 0.000000
v -0.250244 -0.433350 0.000000
v -0.000000 -0.500488 0.000000
vt 0.999512 0.500000
vt 0.932617 0.250000
vt 0.499756 0.500000
vt 0.932617 0.749512
vt 0.749512 0.066956
vt 0.749512 0.932617
vt 0.500000 0.000007
vt 0.500000 0.999512
vt 0.250000 0.066956
vt 0.250000 0.932617
vt 0.066956 0.250000
vt 0.066956 0.749512
vt 0.000006 0.499756
vn 0.000000 0.000000 -1.000000
vn 0.000000 0.000000 -1.000000
vn 0.000000 0.000000 -1.000000
vn 0.000000 0.000000 -1.000000
vn 0.000000 0.000000 -1.000000
vn 0.000000 0.000000 -1.000000
vn 0.000000 0.000000 -1.000000
vn 0.000000 0.000000 -1.000000
vn 0.000000 0.000000 -1.000000
vn 0.000000 0.000000 -1.000000
vn 0.000000 0.000000 -1.000000
vn 0.000000 0.000000 -1.000000
vn 0.000000 0.000000 -1.000000
f 1/1/1 2/2/2 3/3/3
f 4/4/4 1/1/1 3/3/3
f 2/2/2 5/5/5 3/3/3
f 6/6/6 4/4/4 3/3/3
f 5/5/5 7/7/7 3/3/3
f 8/8/8 6/6/6 3/3/3
f 7/7/7 9/9/9 3/3/3
f 10/10/10 8/8/8 3/3/3
f 9/9/9 11/11/11 3/3/3
f 12/12/12 10/10/10 3/3/3
f 11/11/11 13/13/13 3/3/3
f 13/13/13 12/12/12 3/3/3