# OBJ file generated from mesh: vfx_plane_ray
# Vertices: 8
# Faces: 4
v 1.000000 -1.000000 0.000000
v 1.000000 1.000000 0.000000
v -1.000000 1.000000 0.000000
v -1.000000 -1.000000 0.000000
v 0.999512 0.000000 1.000000
v 1.000000 -0.000000 -0.999512
v -0.999512 0.000000 -1.000000
v -1.000000 0.000000 0.999512
vt 0.000295 1.000000
vt 1.000000 0.999512
vt 0.999512 -0.000295
vt -0.000295 0.000295
vt 0.000295 1.000000
vt 1.000000 0.999512
vt 0.999512 -0.000295
vt -0.000295 0.000295
vn 0.000000 0.000000 1.000000
vn 0.000000 0.000000 1.000000
vn 0.000000 0.000000 1.000000
vn 0.000000 0.000000 1.000000
vn 0.000000 1.000000 0.000000
vn 0.000000 1.000000 0.000000
vn 0.000000 1.000000 0.000000
vn 0.000000 1.000000 0.000000
f 1/1/1 2/2/2 3/3/3
f 1/1/1 3/3/3 4/4/4
f 5/5/5 6/6/6 7/7/7
f 5/5/5 7/7/7 8/8/8