# OBJ file generated from mesh: vfx_cylinder_cone
# Vertices: 34
# Faces: 32
v 0.000000 -0.012756 -1.000000
v -1.040039 5.691406 -2.511719
v 0.000000 5.691406 -2.718750
v -0.382568 -0.012756 -0.923828
v -1.921875 5.691406 -1.921875
v -0.707031 -0.012756 -0.707031
v -2.511719 5.691406 -1.040039
v -0.923828 -0.012756 -0.382568
v -2.718750 5.691406 0.000000
v -1.000000 -0.012756 0.000000
v -2.511719 5.691406 1.040039
v -0.923828 -0.012756 0.382568
v -1.921875 5.691406 1.921875
v -0.707031 -0.012756 0.707031
v -1.040039 5.691406 2.511719
v -0.382568 -0.012756 0.923828
v -0.000000 5.691406 2.718750
v -0.000000 -0.012756 1.000000
v 1.040039 5.691406 2.511719
v 0.382568 -0.012756 0.923828
v 1.921875 5.691406 1.921875
v 0.707031 -0.012756 0.707031
v 2.511719 5.691406 1.040039
v 0.923828 -0.012756 0.382568
v 2.718750 5.691406 0.000000
v 1.000000 -0.012756 0.000000
v 2.511719 5.691406 -1.040039
v 0.923828 -0.012756 -0.382568
v 1.921875 5.691406 -1.921875
v 0.707031 -0.012756 -0.707031
v 1.040039 5.691406 -2.511719
v 0.382568 -0.012756 -0.923828
v 0.000000 5.691406 -2.718750
v 0.000000 -0.012756 -1.000000
vt 1.000000 0.000000
vt 0.937500 1.000000
vt 1.000000 1.000000
vt 0.937500 0.000000
vt 0.875000 1.000000
vt 0.875000 0.000000
vt 0.812500 1.000000
vt 0.812500 0.000000
vt 0.750000 1.000000
vt 0.750000 0.000000
vt 0.687500 1.000000
vt 0.687500 0.000000
vt 0.625000 1.000000
vt 0.625000 0.000000
vt 0.562500 1.000000
vt 0.562500 0.000000
vt 0.500000 1.000000
vt 0.500000 0.000000
vt 0.437500 1.000000
vt 0.437500 0.000000
vt 0.375000 1.000000
vt 0.375000 0.000000
vt 0.312500 1.000000
vt 0.312500 0.000000
vt 0.250000 1.000000
vt 0.250000 0.000000
vt 0.187500 1.000000
vt 0.187500 0.000000
vt 0.125000 1.000000
vt 0.125000 0.000000
vt 0.062500 1.000000
vt 0.062500 0.000000
vt 0.000000 1.000000
vt 0.000000 0.000000
vn 0.000000 -0.288330 -0.957031
vn -0.366211 -0.288330 -0.884277
vn 0.000000 -0.288330 -0.957031
vn -0.366211 -0.288330 -0.884277
vn -0.676758 -0.288330 -0.676758
vn -0.676758 -0.288330 -0.676758
vn -0.884277 -0.288330 -0.366211
vn -0.884277 -0.288330 -0.366211
vn -0.957031 -0.288330 0.000000
vn -0.957031 -0.288330 0.000000
vn -0.884277 -0.288330 0.366211
vn -0.884277 -0.288330 0.366211
vn -0.676758 -0.288330 0.676758
vn -0.676758 -0.288330 0.676758
vn -0.366211 -0.288330 0.884277
vn -0.366211 -0.288330 0.884277
vn 0.000000 -0.288330 0.957031
vn 0.000000 -0.288330 0.957031
vn 0.366211 -0.288330 0.884277
vn 0.366211 -0.288330 0.884277
vn 0.676758 -0.288330 0.676758
vn 0.676758 -0.288330 0.676758
vn 0.884277 -0.288330 0.366211
vn 0.884277 -0.288330 0.366211
vn 0.957031 -0.288330 0.000000
vn 0.957031 -0.288330 0.000000
vn 0.884277 -0.288330 -0.366211
vn 0.884277 -0.288330 -0.366211
vn 0.676758 -0.288330 -0.676758
vn 0.676758 -0.288330 -0.676758
vn 0.366211 -0.288330 -0.884277
vn 0.366211 -0.288330 -0.884277
vn 0.000000 -0.288330 -0.957031
vn 0.000000 -0.288330 -0.957031
f 1/1/1 2/2/2 3/3/3
f 1/1/1 4/4/4 2/2/2
f 4/4/4 5/5/5 2/2/2
f 4/4/4 6/6/6 5/5/5
f 6/6/6 7/7/7 5/5/5
f 6/6/6 8/8/8 7/7/7
f 8/8/8 9/9/9 7/7/7
f 8/8/8 10/10/10 9/9/9
f 10/10/10 11/11/11 9/9/9
f 10/10/10 12/12/12 11/11/11
f 12/12/12 13/13/13 11/11/11
f 12/12/12 14/14/14 13/13/13
f 14/14/14 15/15/15 13/13/13
f 14/14/14 16/16/16 15/15/15
f 16/16/16 17/17/17 15/15/15
f 16/16/16 18/18/18 17/17/17
f 18/18/18 19/19/19 17/17/17
f 18/18/18 20/20/20 19/19/19
f 20/20/20 21/21/21 19/19/19
f 20/20/20 22/22/22 21/21/21
f 22/22/22 23/23/23 21/21/21
f 22/22/22 24/24/24 23/23/23
f 24/24/24 25/25/25 23/23/23
f 24/24/24 26/26/26 25/25/25
f 26/26/26 27/27/27 25/25/25
f 26/26/26 28/28/28 27/27/27
f 28/28/28 29/29/29 27/27/27
f 28/28/28 30/30/30 29/29/29
f 30/30/30 31/31/31 29/29/29
f 30/30/30 32/32/32 31/31/31
f 32/32/32 33/33/33 31/31/31
f 32/32/32 34/34/34 33/33/33